<?xml version="1.0" encoding="utf-8"?>
<!-- Generator: Adobe Illustrator 19.2.1, SVG Export Plug-In . SVG Version: 6.00 Build 0)  -->
<svg version="1.1" xmlns="http://www.w3.org/2000/svg" xmlns:xlink="http://www.w3.org/1999/xlink" x="0px" y="0px"
	 viewBox="0 0 24 24" style="enable-background:new 0 0 24 24;" xml:space="preserve">
<style type="text/css">
	.st0{fill:#42AAF3;}
	.st1{fill:#F28A1F;}
</style>
<g id="Layer_1">
	<g id="Layer_1_1_">
		<path class="st0" d="M17,3H7C5.3,3,4,4.3,4,6v12c0,1.7,1.3,3,3,3h10c1.7,0,3-1.3,3-3V6C20,4.3,18.7,3,17,3z M9,5h6v1
			c0,0.6-0.4,1-1,1h-4C9.4,7,9,6.6,9,6V5z M18,18c0,0.6-0.4,1-1,1H7c-0.6,0-1-0.4-1-1V6c0-0.6,0.4-1,1-1h1c0,0.3,0,0.6,0,1
			c0,1.1,0.9,2,2,2h4c1.1,0,2-0.9,2-2c0-0.4,0-0.7,0-1h1c0.6,0,1,0.4,1,1V18z"/>
	</g>
</g>
<g id="Layer_1_copy">
	<g id="Layer_1_3_">
		<g>
			<path class="st1" d="M16,17H8c-0.3,0-0.5-0.2-0.5-0.5S7.7,16,8,16h8c0.3,0,0.5,0.2,0.5,0.5S16.3,17,16,17z"/>
		</g>
		<g>
			<path class="st1" d="M16,14H8c-0.3,0-0.5-0.2-0.5-0.5S7.7,13,8,13h8c0.3,0,0.5,0.2,0.5,0.5S16.3,14,16,14z"/>
		</g>
		<g>
			<path class="st1" d="M16,11H8c-0.3,0-0.5-0.2-0.5-0.5S7.7,10,8,10h8c0.3,0,0.5,0.2,0.5,0.5S16.3,11,16,11z"/>
		</g>
	</g>
</g>
</svg>
